<?xml version="1.0" encoding="utf-8" ?>
<svg baseProfile="full" height="512px" version="1.1" viewBox="0 0 512 512" width="512px" xmlns="http://www.w3.org/2000/svg" xmlns:ev="http://www.w3.org/2001/xml-events" xmlns:xlink="http://www.w3.org/1999/xlink"><defs /><path d="M 19.50,511.00 L 19.50,510.00 L 19.50,509.00 L 19.50,508.00 L 20.00,507.50 L 20.50,507.00 L 20.50,506.00 L 20.50,505.00 L 21.00,504.50 L 21.50,504.00 L 21.50,503.00 L 21.50,502.00 L 22.00,501.50 L 22.50,501.00 L 22.50,500.00 L 22.50,499.00 L 22.50,498.00 L 23.00,497.50 L 23.50,497.00 L 23.50,496.00 L 23.50,495.00 L 24.00,494.50 L 24.50,494.00 L 24.50,493.00 L 24.50,492.00 L 25.00,491.50 L 25.50,491.00 L 25.50,490.00 L 25.50,489.00 L 25.50,488.00 L 26.00,487.50 L 26.50,487.00 L 26.50,486.00 L 26.50,485.00 L 27.00,484.50 L 27.50,484.00 L 27.50,483.00 L 27.50,482.00 L 28.00,481.50 L 28.50,481.00 L 28.50,480.00 L 28.50,479.00 L 29.00,478.50 L 29.50,478.00 L 29.50,477.00 L 29.50,476.00 L 29.50,475.00 L 30.00,474.50 L 30.50,474.00 L 30.50,473.00 L 30.50,472.00 L 31.00,471.50 L 31.50,471.00 L 31.50,470.00 L 31.50,469.00 L 32.00,468.50 L 32.50,468.00 L 32.50,467.00 L 32.50,466.00 L 33.00,465.50 L 33.50,465.00 L 33.50,464.00 L 33.50,463.00 L 34.00,462.50 L 34.50,462.00 L 34.50,461.00 L 34.50,460.00 L 35.00,459.50 L 35.50,459.00 L 35.50,458.00 L 35.50,457.00 L 36.00,456.50 L 36.50,456.00 L 36.50,455.00 L 36.50,454.00 L 37.00,453.50 L 37.50,453.00 L 37.50,452.00 L 37.50,451.00 L 38.00,450.50 L 38.50,450.00 L 38.50,449.00 L 38.50,448.00 L 38.50,447.00 L 39.00,446.50 L 39.50,446.00 L 39.50,445.00 L 39.50,444.00 L 40.00,443.50 L 40.50,443.00 L 40.50,442.00 L 40.50,441.00 L 41.00,440.50 L 41.50,440.00 L 41.50,439.00 L 41.50,438.00 L 42.00,437.50 L 42.50,437.00 L 42.50,436.00 L 42.50,435.00 L 43.00,434.50 L 43.50,434.00 L 43.50,433.00 L 43.50,432.00 L 44.00,431.50 L 44.50,431.00 L 44.50,430.00 L 44.50,429.00 L 45.00,428.50 L 45.50,428.00 L 45.50,427.00 L 45.50,426.00 L 46.00,425.50 L 46.50,425.00 L 46.50,424.00 L 46.50,423.00 L 47.00,422.50 L 47.50,422.00 L 47.50,421.00 L 47.50,420.00 L 48.00,419.50 L 48.50,419.00 L 48.50,418.00 L 48.50,417.00 L 49.00,416.50 L 49.50,416.00 L 49.50,415.00 L 50.00,414.50 L 50.50,414.00 L 50.50,413.00 L 50.50,412.00 L 51.00,411.50 L 51.50,411.00 L 51.50,410.00 L 51.50,409.00 L 52.00,408.50 L 52.50,408.00 L 52.50,407.00 L 52.50,406.00 L 53.00,405.50 L 53.50,405.00 L 53.50,404.00 L 53.50,403.00 L 54.00,402.50 L 54.50,402.00 L 54.50,401.00 L 54.50,400.00 L 55.00,399.50 L 55.50,399.00 L 55.50,398.00 L 55.50,397.00 L 56.00,396.50 L 56.50,396.00 L 56.50,395.00 L 57.00,394.50 L 57.50,394.00 L 57.50,393.00 L 57.50,392.00 L 58.00,391.50 L 58.50,391.00 L 58.50,390.00 L 59.00,389.50 L 59.50,389.00 L 59.50,388.00 L 59.50,387.00 L 60.00,386.50 L 60.50,386.00 L 60.50,385.00 L 60.50,384.00 L 61.00,383.50 L 61.50,383.00 L 61.50,382.00 L 62.00,381.50 L 62.50,381.00 L 62.50,380.00 L 62.50,379.00 L 63.00,378.50 L 63.50,378.00 L 63.50,377.00 L 64.00,376.50 L 64.50,376.00 L 64.50,375.00 L 64.50,374.00 L 65.00,373.50 L 65.50,373.00 L 65.50,372.00 L 66.00,371.50 L 66.50,371.00 L 66.50,370.00 L 67.00,369.50 L 67.50,369.00 L 67.50,368.00 L 68.00,367.50 L 68.50,367.00 L 68.50,366.00 L 69.00,365.50 L 69.50,365.00 L 69.50,364.00 L 70.00,363.50 L 70.50,363.00 L 71.00,362.50 L 71.50,362.00 L 72.00,361.50 L 72.50,361.00 L 73.00,360.50 L 74.00,360.50 L 74.50,360.00 L 75.00,359.50 L 75.50,359.00 L 76.00,358.50 L 77.00,358.50 L 77.50,358.00 L 78.00,357.50 L 79.00,357.50 L 79.50,357.00 L 80.00,356.50 L 81.00,356.50 L 81.50,356.00 L 82.00,355.50 L 83.00,355.50 L 83.50,355.00 L 84.00,354.50 L 85.00,354.50 L 85.50,354.00 L 86.00,353.50 L 87.00,353.50 L 88.00,353.50 L 88.50,353.00 L 89.00,352.50 L 90.00,352.50 L 90.50,352.00 L 91.00,351.50 L 92.00,351.50 L 92.50,351.00 L 93.00,350.50 L 94.00,350.50 L 94.50,350.00 L 95.00,349.50 L 96.00,349.50 L 96.50,349.00 L 97.00,348.50 L 98.00,348.50 L 99.00,348.50 L 99.50,348.00 L 100.00,347.50 L 101.00,347.50 L 101.50,347.00 L 102.00,346.50 L 103.00,346.50 L 103.50,346.00 L 104.00,345.50 L 105.00,345.50 L 105.50,345.00 L 106.00,344.50 L 107.00,344.50 L 107.50,344.00 L 108.00,343.50 L 109.00,343.50 L 109.50,343.00 L 110.00,342.50 L 111.00,342.50 L 112.00,342.50 L 112.50,342.00 L 113.00,341.50 L 114.00,341.50 L 114.50,341.00 L 115.00,340.50 L 116.00,340.50 L 116.50,340.00 L 117.00,339.50 L 118.00,339.50 L 118.50,339.00 L 119.00,338.50 L 120.00,338.50 L 121.00,338.50 L 121.50,338.00 L 122.00,337.50 L 123.00,337.50 L 123.50,337.00 L 124.00,336.50 L 125.00,336.50 L 125.50,336.00 L 126.00,335.50 L 127.00,335.50 L 127.50,335.00 L 128.00,334.50 L 129.00,334.50 L 129.50,334.00 L 130.00,333.50 L 131.00,333.50 L 131.50,333.00 L 132.00,332.50 L 133.00,332.50 L 134.00,332.50 L 134.50,332.00 L 135.00,331.50 L 136.00,331.50 L 136.50,331.00 L 137.00,330.50 L 138.00,330.50 L 138.50,330.00 L 138.00,329.50 L 137.50,329.00 L 137.00,328.50 L 136.50,328.00 L 136.00,327.50 L 135.50,327.00 L 135.00,326.50 L 134.50,326.00 L 134.00,325.50 L 133.50,325.00 L 133.00,324.50 L 132.50,324.00 L 132.00,323.50 L 131.50,323.00 L 131.00,322.50 L 130.50,322.00 L 130.00,321.50 L 129.50,321.00 L 129.00,320.50 L 128.50,320.00 L 128.00,319.50 L 127.50,319.00 L 127.00,318.50 L 126.50,318.00 L 126.00,317.50 L 125.50,317.00 L 125.00,316.50 L 124.50,316.00 L 124.00,315.50 L 123.50,315.00 L 123.00,314.50 L 122.50,314.00 L 122.00,313.50 L 121.00,313.50 L 120.50,313.00 L 120.00,312.50 L 119.50,312.00 L 119.00,311.50 L 118.50,311.00 L 118.00,310.50 L 117.50,310.00 L 117.00,309.50 L 116.50,309.00 L 116.00,308.50 L 115.50,308.00 L 115.00,307.50 L 114.50,307.00 L 114.00,306.50 L 113.50,306.00 L 113.00,305.50 L 112.50,305.00 L 112.00,304.50 L 111.00,304.50 L 110.50,304.00 L 110.00,303.50 L 109.50,303.00 L 109.00,302.50 L 108.50,302.00 L 108.00,301.50 L 107.50,301.00 L 107.00,300.50 L 106.50,300.00 L 106.00,299.50 L 105.50,299.00 L 105.00,298.50 L 104.00,298.50 L 103.50,298.00 L 103.00,297.50 L 102.50,297.00 L 102.00,296.50 L 101.50,296.00 L 101.00,295.50 L 100.50,295.00 L 100.00,294.50 L 99.50,294.00 L 99.00,293.50 L 98.50,293.00 L 98.00,292.50 L 97.50,292.00 L 97.00,291.50 L 96.50,291.00 L 96.00,290.50 L 95.50,290.00 L 95.50,289.00 L 95.00,288.50 L 94.50,288.00 L 94.50,287.00 L 94.50,286.00 L 94.50,285.00 L 94.50,284.00 L 94.50,283.00 L 95.00,282.50 L 95.50,282.00 L 95.50,281.00 L 96.00,280.50 L 96.50,280.00 L 97.00,279.50 L 97.50,279.00 L 98.00,278.50 L 98.50,278.00 L 99.00,277.50 L 99.50,277.00 L 100.00,276.50 L 100.50,276.00 L 101.00,275.50 L 102.00,275.50 L 102.50,275.00 L 103.00,274.50 L 103.50,274.00 L 104.00,273.50 L 105.00,273.50 L 105.50,273.00 L 106.00,272.50 L 106.50,272.00 L 107.00,271.50 L 108.00,271.50 L 108.50,271.00 L 109.00,270.50 L 109.50,270.00 L 110.00,269.50 L 111.00,269.50 L 111.50,269.00 L 112.00,268.50 L 112.50,268.00 L 113.00,267.50 L 114.00,267.50 L 114.50,267.00 L 115.00,266.50 L 115.50,266.00 L 116.00,265.50 L 117.00,265.50 L 117.50,265.00 L 118.00,264.50 L 119.00,264.50 L 119.50,264.00 L 120.00,263.50 L 120.50,263.00 L 121.00,262.50 L 122.00,262.50 L 122.50,262.00 L 123.00,261.50 L 124.00,261.50 L 124.50,261.00 L 125.00,260.50 L 126.00,260.50 L 126.50,260.00 L 127.00,259.50 L 128.00,259.50 L 128.50,259.00 L 129.00,258.50 L 129.50,258.00 L 130.00,257.50 L 131.00,257.50 L 131.50,257.00 L 132.00,256.50 L 133.00,256.50 L 133.50,256.00 L 134.00,255.50 L 135.00,255.50 L 135.50,255.00 L 136.00,254.50 L 137.00,254.50 L 137.50,254.00 L 138.00,253.50 L 139.00,253.50 L 139.50,253.00 L 140.00,252.50 L 141.00,252.50 L 141.50,252.00 L 142.00,251.50 L 142.50,251.00 L 143.00,250.50 L 144.00,250.50 L 144.50,250.00 L 145.00,249.50 L 146.00,249.50 L 146.50,249.00 L 147.00,248.50 L 148.00,248.50 L 148.50,248.00 L 149.00,247.50 L 150.00,247.50 L 150.50,247.00 L 151.00,246.50 L 152.00,246.50 L 152.50,246.00 L 153.00,245.50 L 154.00,245.50 L 154.50,245.00 L 155.00,244.50 L 156.00,244.50 L 156.50,244.00 L 157.00,243.50 L 158.00,243.50 L 158.50,243.00 L 158.50,242.00 L 158.50,241.00 L 158.50,240.00 L 158.50,239.00 L 158.50,238.00 L 158.50,237.00 L 158.00,236.50 L 157.50,236.00 L 157.00,235.50 L 156.50,235.00 L 156.00,234.50 L 155.00,234.50 L 154.50,234.00 L 154.00,233.50 L 153.50,233.00 L 153.00,232.50 L 152.00,232.50 L 151.50,232.00 L 151.00,231.50 L 150.50,231.00 L 150.00,230.50 L 149.50,230.00 L 149.50,229.00 L 149.00,228.50 L 148.50,228.00 L 148.00,227.50 L 147.50,227.00 L 147.50,226.00 L 147.00,225.50 L 146.50,225.00 L 146.00,224.50 L 145.50,224.00 L 145.50,223.00 L 145.50,222.00 L 145.00,221.50 L 144.50,221.00 L 144.50,220.00 L 144.00,219.50 L 143.50,219.00 L 143.50,218.00 L 143.50,217.00 L 143.00,216.50 L 142.50,216.00 L 142.50,215.00 L 142.50,214.00 L 142.00,213.50 L 141.50,213.00 L 141.50,212.00 L 141.50,211.00 L 141.00,210.50 L 140.50,210.00 L 140.50,209.00 L 140.00,208.50 L 139.50,208.00 L 139.50,207.00 L 139.50,206.00 L 139.00,205.50 L 138.50,205.00 L 138.50,204.00 L 138.00,203.50 L 137.50,203.00 L 137.50,202.00 L 137.50,201.00 L 137.00,200.50 L 136.50,200.00 L 136.50,199.00 L 136.50,198.00 L 136.50,197.00 L 136.00,196.50 L 135.50,196.00 L 135.50,195.00 L 136.00,194.50 L 136.50,194.00 L 136.50,193.00 L 136.50,192.00 L 137.00,191.50 L 137.50,191.00 L 138.00,190.50 L 138.50,190.00 L 139.00,189.50 L 139.50,189.00 L 140.00,188.50 L 141.00,188.50 L 141.50,188.00 L 142.00,187.50 L 143.00,187.50 L 144.00,187.50 L 144.50,187.00 L 145.00,186.50 L 146.00,186.50 L 147.00,186.50 L 147.50,186.00 L 147.00,185.50 L 146.00,185.50 L 145.00,185.50 L 144.00,185.50 L 143.00,185.50 L 142.00,185.50 L 141.00,185.50 L 140.00,185.50 L 139.00,185.50 L 138.00,185.50 L 137.00,185.50 L 136.00,185.50 L 135.00,185.50 L 134.50,185.00 L 134.00,184.50 L 133.00,184.50 L 132.00,184.50 L 131.00,184.50 L 130.00,184.50 L 129.00,184.50 L 128.00,184.50 L 127.00,184.50 L 126.50,184.00 L 126.00,183.50 L 125.00,183.50 L 124.00,183.50 L 123.00,183.50 L 122.00,183.50 L 121.50,183.00 L 121.00,182.50 L 120.00,182.50 L 119.00,182.50 L 118.00,182.50 L 117.50,182.00 L 117.00,181.50 L 116.00,181.50 L 115.00,181.50 L 114.50,181.00 L 114.00,180.50 L 113.00,180.50 L 112.00,180.50 L 111.50,180.00 L 111.00,179.50 L 110.00,179.50 L 109.50,179.00 L 109.00,178.50 L 108.00,178.50 L 107.50,178.00 L 107.00,177.50 L 106.00,177.50 L 105.50,177.00 L 105.00,176.50 L 104.50,176.00 L 104.00,175.50 L 103.50,175.00 L 103.50,174.00 L 103.00,173.50 L 102.50,173.00 L 102.50,172.00 L 102.50,171.00 L 102.50,170.00 L 102.50,169.00 L 102.50,168.00 L 103.00,167.50 L 103.50,167.00 L 104.00,166.50 L 104.50,166.00 L 105.00,165.50 L 105.50,165.00 L 106.00,164.50 L 106.50,164.00 L 107.00,163.50 L 107.50,163.00 L 108.00,162.50 L 108.50,162.00 L 109.00,161.50 L 110.00,161.50 L 110.50,161.00 L 111.00,160.50 L 111.50,160.00 L 112.00,159.50 L 113.00,159.50 L 113.50,159.00 L 114.00,158.50 L 115.00,158.50 L 115.50,158.00 L 116.00,157.50 L 117.00,157.50 L 117.50,157.00 L 118.00,156.50 L 119.00,156.50 L 120.00,156.50 L 120.50,156.00 L 121.00,155.50 L 122.00,155.50 L 122.50,155.00 L 123.00,154.50 L 124.00,154.50 L 124.50,154.00 L 125.00,153.50 L 126.00,153.50 L 127.00,153.50 L 127.50,153.00 L 128.00,152.50 L 129.00,152.50 L 130.00,152.50 L 130.50,152.00 L 131.00,151.50 L 132.00,151.50 L 132.50,151.00 L 133.00,150.50 L 134.00,150.50 L 135.00,150.50 L 135.50,150.00 L 136.00,149.50 L 137.00,149.50 L 138.00,149.50 L 138.50,149.00 L 139.00,148.50 L 140.00,148.50 L 141.00,148.50 L 142.00,148.50 L 142.50,148.00 L 143.00,147.50 L 144.00,147.50 L 145.00,147.50 L 145.50,147.00 L 146.00,146.50 L 147.00,146.50 L 148.00,146.50 L 149.00,146.50 L 149.50,146.00 L 150.00,145.50 L 150.50,145.00 L 150.50,144.00 L 150.50,143.00 L 151.00,142.50 L 151.50,142.00 L 151.50,141.00 L 151.50,140.00 L 151.50,139.00 L 152.00,138.50 L 152.50,138.00 L 152.50,137.00 L 152.50,136.00 L 152.50,135.00 L 153.00,134.50 L 153.50,134.00 L 153.50,133.00 L 153.50,132.00 L 154.00,131.50 L 154.50,131.00 L 154.50,130.00 L 154.50,129.00 L 154.50,128.00 L 155.00,127.50 L 155.50,127.00 L 155.50,126.00 L 155.50,125.00 L 155.50,124.00 L 156.00,123.50 L 156.50,123.00 L 156.50,122.00 L 156.50,121.00 L 156.50,120.00 L 157.00,119.50 L 157.50,119.00 L 157.50,118.00 L 157.50,117.00 L 158.00,116.50 L 158.50,116.00 L 158.50,115.00 L 158.50,114.00 L 158.50,113.00 L 159.00,112.50 L 159.50,112.00 L 159.50,111.00 L 159.50,110.00 L 159.50,109.00 L 160.00,108.50 L 160.50,108.00 L 160.50,107.00 L 160.50,106.00 L 161.00,105.50 L 161.50,105.00 L 161.50,104.00 L 161.50,103.00 L 161.50,102.00 L 162.00,101.50 L 162.50,101.00 L 162.50,100.00 L 162.50,99.00 L 163.00,98.50 L 163.50,98.00 L 163.50,97.00 L 163.50,96.00 L 163.50,95.00 L 164.00,94.50 L 164.50,94.00 L 164.50,93.00 L 164.50,92.00 L 165.00,91.50 L 165.50,91.00 L 165.50,90.00 L 165.50,89.00 L 166.00,88.50 L 166.50,88.00 L 166.50,87.00 L 166.50,86.00 L 167.00,85.50 L 167.50,85.00 L 167.50,84.00 L 167.50,83.00 L 168.00,82.50 L 168.50,82.00 L 168.50,81.00 L 168.50,80.00 L 168.50,79.00 L 169.00,78.50 L 169.50,78.00 L 169.50,77.00 L 170.00,76.50 L 170.50,76.00 L 170.50,75.00 L 170.50,74.00 L 171.00,73.50 L 171.50,73.00 L 171.50,72.00 L 171.50,71.00 L 172.00,70.50 L 172.50,70.00 L 172.50,69.00 L 172.50,68.00 L 173.00,67.50 L 173.50,67.00 L 173.50,66.00 L 173.50,65.00 L 174.00,64.50 L 174.50,64.00 L 174.50,63.00 L 175.00,62.50 L 175.50,62.00 L 175.50,61.00 L 176.00,60.50 L 176.50,60.00 L 176.50,59.00 L 176.50,58.00 L 177.00,57.50 L 177.50,57.00 L 178.00,56.50 L 178.50,56.00 L 178.50,55.00 L 179.00,54.50 L 179.50,54.00 L 180.00,53.50 L 180.50,53.00 L 180.50,52.00 L 181.00,51.50 L 181.50,51.00 L 182.00,50.50 L 183.00,50.50 L 183.50,50.00 L 184.00,49.50 L 184.50,49.00 L 185.00,48.50 L 186.00,48.50 L 186.50,48.00 L 187.00,47.50 L 188.00,47.50 L 188.50,47.00 L 189.00,46.50 L 190.00,46.50 L 191.00,46.50 L 192.00,46.50 L 193.00,46.50 L 193.50,46.00 L 194.00,45.50 L 195.00,45.50 L 196.00,45.50 L 196.50,46.00 L 197.00,46.50 L 198.00,46.50 L 199.00,46.50 L 200.00,46.50 L 200.50,47.00 L 201.00,47.50 L 202.00,47.50 L 203.00,47.50 L 203.50,48.00 L 204.00,48.50 L 205.00,48.50 L 205.50,49.00 L 206.00,49.50 L 207.00,49.50 L 207.50,50.00 L 208.00,50.50 L 209.00,50.50 L 210.00,50.50 L 210.50,50.00 L 211.00,49.50 L 212.00,49.50 L 213.00,49.50 L 214.00,49.50 L 214.50,49.00 L 215.00,48.50 L 216.00,48.50 L 217.00,48.50 L 218.00,48.50 L 218.50,48.00 L 219.00,47.50 L 220.00,47.50 L 221.00,47.50 L 222.00,47.50 L 222.50,47.00 L 223.00,46.50 L 224.00,46.50 L 225.00,46.50 L 226.00,46.50 L 227.00,46.50 L 227.50,46.00 L 228.00,45.50 L 229.00,45.50 L 230.00,45.50 L 231.00,45.50 L 232.00,45.50 L 233.00,45.50 L 233.50,45.00 L 234.00,44.50 L 235.00,44.50 L 236.00,44.50 L 237.00,44.50 L 238.00,44.50 L 239.00,44.50 L 239.50,44.00 L 240.00,43.50 L 241.00,43.50 L 242.00,43.50 L 243.00,43.50 L 244.00,43.50 L 245.00,43.50 L 246.00,43.50 L 247.00,43.50 L 247.50,43.00 L 248.00,42.50 L 249.00,42.50 L 250.00,42.50 L 251.00,42.50 L 252.00,42.50 L 253.00,42.50 L 254.00,42.50 L 255.00,42.50 L 256.00,42.50 L 257.00,42.50 L 258.00,42.50 L 259.00,42.50 L 260.00,42.50 L 261.00,42.50 L 262.00,42.50 L 263.00,42.50 L 264.00,42.50 L 265.00,42.50 L 266.00,42.50 L 267.00,42.50 L 268.00,42.50 L 269.00,42.50 L 270.00,42.50 L 271.00,42.50 L 272.00,42.50 L 273.00,42.50 L 274.00,42.50 L 275.00,42.50 L 276.00,42.50 L 276.50,43.00 L 277.00,43.50 L 278.00,43.50 L 279.00,43.50 L 280.00,43.50 L 281.00,43.50 L 282.00,43.50 L 283.00,43.50 L 284.00,43.50 L 284.50,44.00 L 285.00,44.50 L 286.00,44.50 L 287.00,44.50 L 288.00,44.50 L 289.00,44.50 L 289.50,45.00 L 290.00,45.50 L 291.00,45.50 L 292.00,45.50 L 293.00,45.50 L 294.00,45.50 L 294.50,46.00 L 295.00,46.50 L 296.00,46.50 L 297.00,46.50 L 297.50,47.00 L 298.00,47.50 L 299.00,47.50 L 300.00,47.50 L 300.50,48.00 L 301.00,48.50 L 302.00,48.50 L 302.50,49.00 L 303.00,49.50 L 304.00,49.50 L 304.50,50.00 L 305.00,50.50 L 306.00,50.50 L 306.50,51.00 L 307.00,51.50 L 308.00,51.50 L 308.50,52.00 L 309.00,52.50 L 309.50,53.00 L 310.00,53.50 L 311.00,53.50 L 311.50,54.00 L 312.00,54.50 L 312.50,55.00 L 313.00,55.50 L 313.50,56.00 L 314.00,56.50 L 314.50,57.00 L 315.00,57.50 L 315.50,58.00 L 316.00,58.50 L 316.50,59.00 L 316.50,60.00 L 317.00,60.50 L 317.50,61.00 L 317.50,62.00 L 318.00,62.50 L 318.50,63.00 L 318.50,64.00 L 319.00,64.50 L 319.50,65.00 L 319.50,66.00 L 320.00,66.50 L 320.50,67.00 L 320.50,68.00 L 320.50,69.00 L 321.00,69.50 L 321.50,70.00 L 321.50,71.00 L 321.50,72.00 L 322.00,72.50 L 322.50,73.00 L 322.50,74.00 L 322.50,75.00 L 323.00,75.50 L 323.50,76.00 L 323.50,77.00 L 323.50,78.00 L 323.50,79.00 L 324.00,79.50 L 324.50,80.00 L 324.50,81.00 L 324.50,82.00 L 325.00,82.50 L 325.50,83.00 L 325.50,84.00 L 325.50,85.00 L 325.50,86.00 L 326.00,86.50 L 326.50,87.00 L 326.50,88.00 L 326.50,89.00 L 326.50,90.00 L 327.00,90.50 L 327.50,91.00 L 327.50,92.00 L 327.50,93.00 L 327.50,94.00 L 328.00,94.50 L 328.50,95.00 L 328.50,96.00 L 328.50,97.00 L 328.50,98.00 L 328.50,99.00 L 329.00,99.50 L 329.50,100.00 L 329.50,101.00 L 329.50,102.00 L 329.50,103.00 L 330.00,103.50 L 330.50,104.00 L 330.50,105.00 L 330.50,106.00 L 330.50,107.00 L 331.00,107.50 L 331.50,108.00 L 331.50,109.00 L 331.50,110.00 L 331.50,111.00 L 331.50,112.00 L 332.00,112.50 L 332.50,113.00 L 332.50,114.00 L 332.50,115.00 L 332.50,116.00 L 332.50,117.00 L 333.00,117.50 L 333.50,118.00 L 333.50,119.00 L 333.50,120.00 L 333.50,121.00 L 333.50,122.00 L 334.00,122.50 L 334.50,123.00 L 334.50,124.00 L 334.50,125.00 L 334.50,126.00 L 335.00,126.50 L 335.50,127.00 L 335.50,128.00 L 335.50,129.00 L 335.50,130.00 L 335.50,131.00 L 335.50,132.00 L 336.00,132.50 L 336.50,133.00 L 336.50,134.00 L 336.50,135.00 L 336.50,136.00 L 336.50,137.00 L 337.00,137.50 L 338.00,137.50 L 339.00,137.50 L 340.00,137.50 L 340.50,138.00 L 341.00,138.50 L 342.00,138.50 L 343.00,138.50 L 344.00,138.50 L 345.00,138.50 L 345.50,139.00 L 346.00,139.50 L 347.00,139.50 L 348.00,139.50 L 349.00,139.50 L 349.50,140.00 L 350.00,140.50 L 351.00,140.50 L 352.00,140.50 L 353.00,140.50 L 353.50,141.00 L 354.00,141.50 L 355.00,141.50 L 356.00,141.50 L 357.00,141.50 L 357.50,142.00 L 358.00,142.50 L 359.00,142.50 L 360.00,142.50 L 360.50,143.00 L 361.00,143.50 L 362.00,143.50 L 363.00,143.50 L 364.00,143.50 L 364.50,144.00 L 365.00,144.50 L 366.00,144.50 L 367.00,144.50 L 367.50,145.00 L 368.00,145.50 L 369.00,145.50 L 370.00,145.50 L 370.50,146.00 L 371.00,146.50 L 372.00,146.50 L 373.00,146.50 L 373.50,147.00 L 374.00,147.50 L 375.00,147.50 L 376.00,147.50 L 376.50,148.00 L 377.00,148.50 L 378.00,148.50 L 378.50,149.00 L 379.00,149.50 L 380.00,149.50 L 380.50,150.00 L 381.00,150.50 L 382.00,150.50 L 383.00,150.50 L 383.50,151.00 L 384.00,151.50 L 385.00,151.50 L 385.50,152.00 L 386.00,152.50 L 387.00,152.50 L 387.50,153.00 L 388.00,153.50 L 388.50,154.00 L 389.00,154.50 L 389.50,155.00 L 390.00,155.50 L 391.00,155.50 L 391.50,156.00 L 391.50,157.00 L 392.00,157.50 L 392.50,158.00 L 392.50,159.00 L 392.50,160.00 L 392.50,161.00 L 392.50,162.00 L 392.50,163.00 L 392.00,163.50 L 391.50,164.00 L 391.00,164.50 L 390.50,165.00 L 390.00,165.50 L 389.50,166.00 L 389.00,166.50 L 388.50,167.00 L 388.00,167.50 L 387.50,168.00 L 387.00,168.50 L 386.00,168.50 L 385.50,169.00 L 385.00,169.50 L 384.00,169.50 L 383.50,170.00 L 383.00,170.50 L 382.00,170.50 L 381.50,171.00 L 381.00,171.50 L 380.00,171.50 L 379.50,172.00 L 379.00,172.50 L 378.00,172.50 L 377.50,173.00 L 377.00,173.50 L 376.00,173.50 L 375.00,173.50 L 374.50,174.00 L 374.00,174.50 L 373.00,174.50 L 372.50,175.00 L 372.00,175.50 L 371.00,175.50 L 370.00,175.50 L 369.50,176.00 L 369.00,176.50 L 368.00,176.50 L 367.00,176.50 L 366.50,177.00 L 366.00,177.50 L 365.00,177.50 L 364.00,177.50 L 363.50,178.00 L 363.00,178.50 L 362.00,178.50 L 361.00,178.50 L 360.00,178.50 L 359.50,179.00 L 359.00,179.50 L 358.00,179.50 L 357.00,179.50 L 356.00,179.50 L 355.50,180.00 L 355.00,180.50 L 354.00,180.50 L 353.00,180.50 L 352.50,181.00 L 352.00,181.50 L 351.00,181.50 L 350.00,181.50 L 349.00,181.50 L 348.50,182.00 L 348.00,182.50 L 347.00,182.50 L 346.00,182.50 L 345.00,182.50 L 344.50,183.00 L 344.00,183.50 L 343.00,183.50 L 342.00,183.50 L 341.00,183.50 L 340.50,184.00 L 340.00,184.50 L 339.50,185.00 L 340.00,185.50 L 340.50,186.00 L 340.50,187.00 L 340.50,188.00 L 340.50,189.00 L 340.50,190.00 L 341.00,190.50 L 341.50,191.00 L 341.50,192.00 L 341.50,193.00 L 341.50,194.00 L 341.50,195.00 L 341.50,196.00 L 341.50,197.00 L 341.50,198.00 L 341.50,199.00 L 341.50,200.00 L 341.50,201.00 L 342.00,201.50 L 343.00,201.50 L 343.50,202.00 L 344.00,202.50 L 345.00,202.50 L 345.50,203.00 L 346.00,203.50 L 347.00,203.50 L 348.00,203.50 L 348.50,204.00 L 349.00,204.50 L 350.00,204.50 L 350.50,205.00 L 351.00,205.50 L 352.00,205.50 L 353.00,205.50 L 353.50,206.00 L 354.00,206.50 L 355.00,206.50 L 355.50,207.00 L 356.00,207.50 L 357.00,207.50 L 358.00,207.50 L 358.50,208.00 L 359.00,208.50 L 360.00,208.50 L 361.00,208.50 L 361.50,209.00 L 362.00,209.50 L 363.00,209.50 L 363.50,210.00 L 364.00,210.50 L 365.00,210.50 L 365.50,211.00 L 366.00,211.50 L 367.00,211.50 L 367.50,212.00 L 368.00,212.50 L 369.00,212.50 L 369.50,213.00 L 370.00,213.50 L 371.00,213.50 L 371.50,214.00 L 372.00,214.50 L 373.00,214.50 L 373.50,215.00 L 374.00,215.50 L 374.50,216.00 L 375.00,216.50 L 375.50,217.00 L 376.00,217.50 L 376.50,218.00 L 377.00,218.50 L 377.50,219.00 L 377.50,220.00 L 377.50,221.00 L 378.00,221.50 L 378.50,222.00 L 378.50,223.00 L 378.50,224.00 L 378.50,225.00 L 378.50,226.00 L 378.00,226.50 L 377.50,227.00 L 377.50,228.00 L 377.50,229.00 L 377.00,229.50 L 376.50,230.00 L 376.50,231.00 L 376.50,232.00 L 376.50,233.00 L 376.00,233.50 L 375.50,234.00 L 375.50,235.00 L 375.50,236.00 L 375.00,236.50 L 374.50,237.00 L 374.50,238.00 L 374.50,239.00 L 374.50,240.00 L 374.00,240.50 L 373.50,241.00 L 373.50,242.00 L 373.50,243.00 L 373.50,244.00 L 373.00,244.50 L 372.50,245.00 L 372.50,246.00 L 372.50,247.00 L 372.00,247.50 L 371.50,248.00 L 371.50,249.00 L 371.50,250.00 L 371.50,251.00 L 371.00,251.50 L 370.50,252.00 L 370.50,253.00 L 370.50,254.00 L 370.50,255.00 L 370.00,255.50 L 369.50,256.00 L 369.50,257.00 L 369.50,258.00 L 369.50,259.00 L 369.00,259.50 L 368.50,260.00 L 368.50,261.00 L 368.50,262.00 L 368.50,263.00 L 368.50,264.00 L 368.00,264.50 L 367.50,265.00 L 367.50,266.00 L 367.50,267.00 L 367.50,268.00 L 367.00,268.50 L 366.50,269.00 L 366.50,270.00 L 366.50,271.00 L 366.50,272.00 L 366.00,272.50 L 365.50,273.00 L 365.50,274.00 L 365.50,275.00 L 365.50,276.00 L 365.00,276.50 L 364.50,277.00 L 364.50,278.00 L 364.50,279.00 L 364.50,280.00 L 364.50,281.00 L 364.00,281.50 L 363.50,282.00 L 363.50,283.00 L 363.50,284.00 L 363.50,285.00 L 363.00,285.50 L 362.50,286.00 L 362.50,287.00 L 362.50,288.00 L 362.50,289.00 L 362.50,290.00 L 362.00,290.50 L 361.50,291.00 L 361.50,292.00 L 361.50,293.00 L 361.50,294.00 L 361.00,294.50 L 360.50,295.00 L 360.50,296.00 L 360.50,297.00 L 360.50,298.00 L 360.50,299.00 L 360.00,299.50 L 359.50,300.00 L 360.00,300.50 L 360.50,301.00 L 361.00,301.50 L 361.50,302.00 L 362.00,302.50 L 362.50,303.00 L 363.00,303.50 L 363.50,304.00 L 364.00,304.50 L 364.50,305.00 L 365.00,305.50 L 365.50,306.00 L 366.00,306.50 L 366.50,307.00 L 367.00,307.50 L 367.50,308.00 L 367.50,309.00 L 368.00,309.50 L 368.50,310.00 L 369.00,310.50 L 369.50,311.00 L 369.50,312.00 L 370.00,312.50 L 370.50,313.00 L 370.50,314.00 L 371.00,314.50 L 371.50,315.00 L 371.50,316.00 L 372.00,316.50 L 372.50,317.00 L 372.50,318.00 L 372.50,319.00 L 373.00,319.50 L 373.50,320.00 L 373.50,321.00 L 373.50,322.00 L 374.00,322.50 L 375.00,322.50 L 375.50,323.00 L 376.00,323.50 L 377.00,323.50 L 377.50,324.00 L 378.00,324.50 L 379.00,324.50 L 379.50,325.00 L 380.00,325.50 L 381.00,325.50 L 381.50,326.00 L 382.00,326.50 L 383.00,326.50 L 383.50,327.00 L 384.00,327.50 L 385.00,327.50 L 385.50,328.00 L 386.00,328.50 L 387.00,328.50 L 387.50,329.00 L 388.00,329.50 L 389.00,329.50 L 389.50,330.00 L 390.00,330.50 L 391.00,330.50 L 391.50,331.00 L 392.00,331.50 L 393.00,331.50 L 393.50,332.00 L 394.00,332.50 L 395.00,332.50 L 395.50,333.00 L 396.00,333.50 L 397.00,333.50 L 397.50,334.00 L 398.00,334.50 L 399.00,334.50 L 399.50,335.00 L 400.00,335.50 L 401.00,335.50 L 401.50,336.00 L 402.00,336.50 L 403.00,336.50 L 403.50,337.00 L 404.00,337.50 L 405.00,337.50 L 405.50,338.00 L 406.00,338.50 L 407.00,338.50 L 407.50,339.00 L 408.00,339.50 L 409.00,339.50 L 409.50,340.00 L 410.00,340.50 L 411.00,340.50 L 411.50,341.00 L 412.00,341.50 L 413.00,341.50 L 413.50,342.00 L 414.00,342.50 L 415.00,342.50 L 415.50,343.00 L 416.00,343.50 L 417.00,343.50 L 417.50,344.00 L 418.00,344.50 L 419.00,344.50 L 419.50,345.00 L 420.00,345.50 L 421.00,345.50 L 421.50,346.00 L 422.00,346.50 L 423.00,346.50 L 423.50,347.00 L 424.00,347.50 L 425.00,347.50 L 425.50,348.00 L 426.00,348.50 L 427.00,348.50 L 427.50,349.00 L 428.00,349.50 L 428.50,350.00 L 429.00,350.50 L 430.00,350.50 L 430.50,351.00 L 431.00,351.50 L 432.00,351.50 L 432.50,352.00 L 433.00,352.50 L 434.00,352.50 L 434.50,353.00 L 435.00,353.50 L 436.00,353.50 L 436.50,354.00 L 437.00,354.50 L 437.50,355.00 L 438.00,355.50 L 439.00,355.50 L 439.50,356.00 L 440.00,356.50 L 441.00,356.50 L 441.50,357.00 L 442.00,357.50 L 443.00,357.50 L 443.50,358.00 L 444.00,358.50 L 444.50,359.00 L 445.00,359.50 L 446.00,359.50 L 446.50,360.00 L 447.00,360.50 L 447.50,361.00 L 448.00,361.50 L 449.00,361.50 L 449.50,362.00 L 450.00,362.50 L 450.50,363.00 L 451.00,363.50 L 451.50,364.00 L 452.00,364.50 L 452.50,365.00 L 453.00,365.50 L 453.50,366.00 L 453.50,367.00 L 454.00,367.50 L 454.50,368.00 L 455.00,368.50 L 455.50,369.00 L 455.50,370.00 L 456.00,370.50 L 456.50,371.00 L 456.50,372.00 L 456.50,373.00 L 457.00,373.50 L 457.50,374.00 L 457.50,375.00 L 458.00,375.50 L 458.50,376.00 L 458.50,377.00 L 459.00,377.50 L 459.50,378.00 L 459.50,379.00 L 459.50,380.00 L 460.00,380.50 L 460.50,381.00 L 460.50,382.00 L 460.50,383.00 L 461.00,383.50 L 461.50,384.00 L 461.50,385.00 L 461.50,386.00 L 462.00,386.50 L 462.50,387.00 L 462.50,388.00 L 462.50,389.00 L 463.00,389.50 L 463.50,390.00 L 463.50,391.00 L 463.50,392.00 L 464.00,392.50 L 464.50,393.00 L 464.50,394.00 L 464.50,395.00 L 465.00,395.50 L 465.50,396.00 L 465.50,397.00 L 465.50,398.00 L 465.50,399.00 L 466.00,399.50 L 466.50,400.00 L 466.50,401.00 L 466.50,402.00 L 467.00,402.50 L 467.50,403.00 L 467.50,404.00 L 467.50,405.00 L 467.50,406.00 L 468.00,406.50 L 468.50,407.00 L 468.50,408.00 L 468.50,409.00 L 468.50,410.00 L 469.00,410.50 L 469.50,411.00 L 469.50,412.00 L 469.50,413.00 L 469.50,414.00 L 470.00,414.50 L 470.50,415.00 L 470.50,416.00 L 470.50,417.00 L 470.50,418.00 L 471.00,418.50 L 471.50,419.00 L 471.50,420.00 L 471.50,421.00 L 471.50,422.00 L 472.00,422.50 L 472.50,423.00 L 472.50,424.00 L 472.50,425.00 L 472.50,426.00 L 472.50,427.00 L 473.00,427.50 L 473.50,428.00 L 473.50,429.00 L 473.50,430.00 L 473.50,431.00 L 474.00,431.50 L 474.50,432.00 L 474.50,433.00 L 474.50,434.00 L 474.50,435.00 L 474.50,436.00 L 475.00,436.50 L 475.50,437.00 L 475.50,438.00 L 475.50,439.00 L 475.50,440.00 L 475.50,441.00 L 476.00,441.50 L 476.50,442.00 L 476.50,443.00 L 476.50,444.00 L 476.50,445.00 L 476.50,446.00 L 477.00,446.50 L 477.50,447.00 L 477.50,448.00 L 477.50,449.00 L 477.50,450.00 L 477.50,451.00 L 478.00,451.50 L 478.50,452.00 L 478.50,453.00 L 478.50,454.00 L 478.50,455.00 L 478.50,456.00 L 479.00,456.50 L 479.50,457.00 L 479.50,458.00 L 479.50,459.00 L 479.50,460.00 L 479.50,461.00 L 480.00,461.50 L 480.50,462.00 L 480.50,463.00 L 480.50,464.00 L 480.50,465.00 L 480.50,466.00 L 481.00,466.50 L 481.50,467.00 L 481.50,468.00 L 481.50,469.00 L 481.50,470.00 L 481.50,471.00 L 482.00,471.50 L 482.50,472.00 L 482.50,473.00 L 482.50,474.00 L 482.50,475.00 L 482.50,476.00 L 483.00,476.50 L 483.50,477.00 L 483.50,478.00 L 483.50,479.00 L 483.50,480.00 L 483.50,481.00 L 483.50,482.00 L 484.00,482.50 L 484.50,483.00 L 484.50,484.00 L 484.50,485.00 L 484.50,486.00 L 484.50,487.00 L 485.00,487.50 L 485.50,488.00 L 485.50,489.00 L 485.50,490.00 L 485.50,491.00 L 485.50,492.00 L 486.00,492.50 L 486.50,493.00 L 486.50,494.00 L 486.50,495.00 L 486.50,496.00 L 486.50,497.00 L 486.50,498.00 L 487.00,498.50 L 487.50,499.00 L 487.50,500.00 L 487.50,501.00 L 487.50,502.00 L 487.50,503.00 L 488.00,503.50 L 488.50,504.00 L 488.50,505.00 L 488.50,506.00 L 488.50,507.00 L 488.50,508.00 L 488.50,509.00 L 488.50,510.00 L 489.00,510.50 L 489.50,511.00 Z" fill="#d40000" fill-rule="evenodd" stroke="none" /></svg>